<svg width="265" height="43" viewBox="0 0 265 43" fill="none" xmlns="http://www.w3.org/2000/svg">
<g clip-path="url(#clip0)">
<path d="M113.64 38.08C112.28 26.7847 110.624 15.528 108.671 4.31L107.958 0.218H99.427L98.714 4.31C96.764 15.522 95.1077 26.7787 93.745 38.08L93.273 42.007H100.148L100.633 38.08C100.704 37.501 100.784 36.922 100.856 36.343H106.556C106.627 36.922 106.707 37.501 106.779 38.08L107.251 42.007H114.126L113.64 38.08ZM101.706 29.531C101.759 29.153 101.835 28.676 101.92 28.195C102.312 25.862 103.069 11.034 103.069 11.034H104.316C104.316 11.034 105.086 25.826 105.465 28.177C105.55 28.677 105.625 29.152 105.679 29.513L101.706 29.531ZM94.4 7.031H89.755V42.008H82.855V7.031H78.2V0.218H94.4V7.031ZM69.42 7.031V17.74H75.76V24.522H69.433V35.208H77.448V41.994H62.522V0.218H75.765V7.031H69.42ZM60.113 35.2V42.008H44.292C44.292 28.387 50.94 17.558 52.084 7.027H44.292V0.218H60.113C60.113 13.839 53.14 24.668 52 35.199L60.113 35.2ZM41.963 38.08C40.6003 26.7847 38.944 15.528 36.994 4.31L36.281 0.218H27.75L27.037 4.31C25.087 15.522 23.432 26.7787 22.072 38.08L21.6 42.008H28.475L28.947 38.081C29.014 37.502 29.094 36.923 29.165 36.344H34.865C34.936 36.923 35.016 37.502 35.088 38.081L35.56 42.008H42.435L41.963 38.08ZM30.034 29.531C30.083 29.153 30.159 28.676 30.243 28.195C30.635 25.826 31.392 11.016 31.392 11.016H32.639C32.639 11.016 33.396 25.826 33.788 28.177C33.873 28.677 33.948 29.152 34.002 29.513L30.034 29.531ZM19.2 17.74V42.008H14.89L12.59 38.446L10.29 42.008H9.876C0.668 42.008 0 35.667 0 21.129C0 6.341 0.667999 0 9.881 0C12.419 0 17.62 0.218 18.7 5.922C18.816 6.528 18.927 7.307 19.03 8.202L12.467 10.308C12.445 9.708 12.422 9.27 12.391 9.052C12.222 7.716 11.901 6.705 9.742 6.705C7.583 6.705 7.258 7.735 7.071 9.053C6.813 11.039 6.813 30.872 7.071 32.88C7.24 34.216 7.561 35.227 9.743 35.227C11.925 35.227 12.223 34.194 12.392 32.88C12.492 32.101 12.557 28.605 12.579 24.509H10.331V17.74H19.2ZM158.965 0C149.752 0 149.084 6.341 149.084 21.129C149.084 35.667 149.752 42.008 158.965 42.008C168.178 42.008 168.841 35.667 168.841 21.129C168.833 6.341 168.169 0 158.965 0ZM161.637 32.88C161.463 34.216 161.143 35.227 158.965 35.227C156.787 35.227 156.48 34.194 156.293 32.88C156.035 30.89 156.035 11.039 156.293 9.053C156.462 7.717 156.783 6.706 158.965 6.706C161.147 6.706 161.445 7.735 161.637 9.053C161.864 11.039 161.864 30.89 161.61 32.88H161.637ZM136.795 0.218H127.475V42.008H136.795C146.008 42.008 146.671 35.703 146.671 21.236C146.671 6.523 146.008 0.218 136.795 0.218V0.218ZM139.467 32.924C139.298 34.233 138.973 35.262 136.795 35.262H133.985V6.888H136.795C138.955 6.888 139.28 7.912 139.467 9.221C139.703 11.198 139.703 30.946 139.449 32.921L139.467 32.924ZM244.317 0.218L243.845 4.15C242.474 15.4513 240.817 26.7123 238.876 37.933L238.168 42.007H230.242L229.534 37.937C227.581 26.719 225.924 15.455 224.565 4.145L224.092 0.218H230.94L231.412 4.145C231.59 5.619 231.955 8.375 232.262 10.686C232.612 13.3253 232.885 15.9717 233.081 18.625L233.842 28.902H234.563L235.32 18.625C235.516 15.971 235.791 13.326 236.144 10.69C236.451 8.379 236.816 5.618 236.99 4.144L237.466 0.217L244.317 0.218ZM255.119 0C245.906 0 245.243 6.341 245.243 21.129C245.243 35.667 245.906 42.008 255.119 42.008C264.332 42.008 265 35.667 265 21.129C265 6.341 264.332 0 255.119 0ZM257.791 32.88C257.622 34.216 257.301 35.227 255.119 35.227C252.937 35.227 252.634 34.194 252.447 32.88C252.193 30.89 252.193 11.039 252.447 9.053C252.616 7.717 252.941 6.706 255.119 6.706C257.297 6.706 257.604 7.735 257.791 9.053C258.031 11.039 258.031 30.89 257.773 32.88H257.791ZM213.29 0C204.077 0 203.414 6.341 203.414 21.129C203.414 35.667 204.077 42.008 213.29 42.008C222.503 42.008 223.171 35.667 223.171 21.129C223.166 6.341 222.5 0 213.29 0ZM215.962 32.88C215.793 34.216 215.472 35.227 213.29 35.227C211.108 35.227 210.81 34.194 210.618 32.88C210.364 30.89 210.364 11.039 210.618 9.053C210.792 7.717 211.112 6.706 213.29 6.706C215.468 6.706 215.775 7.735 215.962 9.053C216.2 11.039 216.2 30.889 215.961 32.88H215.962ZM191.19 0.218H182.39V42.008H188.9V30.186H191.193C200.406 30.186 201.069 23.85 201.069 15.291C201.067 6.341 200.4 0.218 191.19 0.218V0.218ZM193.862 21.685C193.697 22.451 193.377 23.6 191.306 23.6H188.9V7.027H191.309C193.38 7.027 193.687 8.194 193.852 8.96C194.097 13.1985 194.097 17.4475 193.852 21.686L193.862 21.685Z" fill="#1D1D1D"/>
</g>
<defs>
<clipPath id="clip0">
<rect width="265" height="42.008" fill="white"/>
</clipPath>
</defs>
</svg>
